<?xml version="1.0" encoding="UTF-8" standalone="no" ?>
<!DOCTYPE svg PUBLIC "-//W3C//DTD SVG 1.1//EN" "http://www.w3.org/Graphics/SVG/1.1/DTD/svg11.dtd">
<svg xmlns="http://www.w3.org/2000/svg" xmlns:xlink="http://www.w3.org/1999/xlink" version="1.1" width="1080" height="1080" viewBox="0 0 1080 1080" xml:space="preserve">
<desc>Created with Fabric.js 5.2.4</desc>
<defs>
</defs>
<g transform="matrix(1 0 0 1 540 540)" id="f5a04077-b0d9-4ff1-a4ac-687e670021e9"  >
<rect style="stroke: none; stroke-width: 1; stroke-dasharray: none; stroke-linecap: butt; stroke-dashoffset: 0; stroke-linejoin: miter; stroke-miterlimit: 4; fill: rgb(255,255,255); fill-rule: nonzero; opacity: 1; visibility: hidden;" vector-effect="non-scaling-stroke"  x="-540" y="-540" rx="0" ry="0" width="1080" height="1080" />
</g>
<g transform="matrix(1 0 0 1 540 540)" id="2a8670bd-224d-4f0e-a971-6c86502c303c"  >
</g>
<g transform="matrix(1 0 0 1 864.85 616.2)"  >
<path style="stroke: none; stroke-width: 1; stroke-dasharray: none; stroke-linecap: butt; stroke-dashoffset: 0; stroke-linejoin: miter; stroke-miterlimit: 4; fill: rgb(242,242,242); fill-rule: nonzero; opacity: 1;" vector-effect="non-scaling-stroke"  transform=" translate(-924.85, -526.2)" d="M 993.2113 545.61 C 987.05114 552.34 979.4114900000001 557.35 971.1214500000001 561.24 L 971.1112 561.24 C 970.33141 561.61 969.55114 561.97 968.7611 562.3100000000001 L 968.75133 562.3100000000001 L 968.74108 562.32 L 968.73131 562.3100000000001 L 968.72155 562.3100000000001 C 968.7215847820843 562.3127064858312 968.7205076691095 562.3153087271448 968.7185702554381 562.3171988868241 C 968.7166328417667 562.3190890465034 968.7140048022484 562.3201015881101 968.7112999999999 562.32 L 968.701 562.32 L 968.69124 562.3100000000001 C 968.68147 562.32 968.68147 562.32 968.67124 562.3100000000001 L 968.66147 562.32 L 968.65122 562.3100000000001 L 968.64145 562.3100000000001 C 968.6311999999999 562.32 968.6311999999999 562.32 968.62145 562.3100000000001 L 968.6111999999999 562.3100000000001 C 963.0624185836916 564.7101411622907 957.3637634096733 566.7477539585828 951.5511399999999 568.4100000000001 C 917.3708558374435 578.1070383077462 881.445795491572 579.9834424937933 846.4412799999999 573.9000000000001 C 845.7713499999999 573.7800000000001 845.1111999999999 573.6600000000001 844.4412799999999 573.5400000000001 L 844.4412799999999 492.43 C 845.1014299999999 492.15000000000003 845.7713499999999 491.87 846.4412799999999 491.6 Q 852.9964399999999 488.88500000000005 859.7112799999999 486.61 Q 869.3711899999998 483.31 879.3011199999999 480.95 C 900.898977341078 475.7226041588006 923.1839729945932 473.9206375205545 945.3411199999997 475.61 Q 951.3865199999998 476.06 957.4011799999998 476.91 C 965.7913099999998 478.08005 974.5911199999998 480.12 982.3313499999998 483.66 L 982.3411199999998 483.66 C 983.4714899999998 484.19 984.5813499999998 484.74 985.6814499999998 485.33005 C 992.5613299999998 489.06005000000005 998.3611399999999 494.19005000000004 1001.9011799999998 501.22005 C 1003.1729651662871 503.7448077445364 1004.0884238364459 506.43375998519764 1004.6213899999998 509.21005 L 1004.6213899999998 509.23005 C 1004.8210999999998 510.19005 1004.9612399999997 511.16005 1005.0710999999998 512.12005 C 1006.33141 523.96 1001.42126 536.63 993.2113 545.61 Z" stroke-linecap="round" />
</g>
<g transform="matrix(1 0 0 1 865.23 609.58)"  >
<path style="stroke: none; stroke-width: 1; stroke-dasharray: none; stroke-linecap: butt; stroke-dashoffset: 0; stroke-linejoin: miter; stroke-miterlimit: 4; fill: rgb(255,255,255); fill-rule: nonzero; opacity: 1;" vector-effect="non-scaling-stroke"  transform=" translate(-925.23, -519.58)" d="M 1005.07116 512.12 C 1004.9730241988982 512.1444536600235 1004.8724641964178 512.1578701574692 1004.77135 512.16 Q 979.0765299999999 513.285 953.45104 515.5 L 953.4212600000001 515.5 C 953.35143 515.51 953.29137 515.51 953.2215500000001 515.52 Q 926.91149 517.8 900.7113 521.23 C 899.9715500000001 521.33 899.24108 521.4300000000001 898.5111 521.52 Q 880.3917100000001 523.935 862.34118 526.88 Q 854.37609 528.185 846.44128 529.6 C 845.77135 529.72 845.1112 529.83 844.44128 529.96 L 844.44128 526.9300000000001 C 845.1112 526.8000000000001 845.78112 526.69 846.44128 526.57 Q 872.87144 521.8900000000001 899.48128 518.4000000000001 Q 906.17128 517.5000000000001 912.88119 516.7 Q 932.2610699999999 514.36 951.70101 512.6600000000001 C 952.65121 512.58 953.59115 512.5000000000001 954.54134 512.4200000000001 Q 979.42611 510.30500000000006 1004.38119 509.2100000000001 C 1004.4617933678157 509.20631760159995 1004.5425352145041 509.21303964686393 1004.62142 509.2300000000001 C 1006.22155 509.37 1006.56139 511.77 1005.07116 512.12 Z" stroke-linecap="round" />
</g>
<g transform="matrix(1 0 0 1 874.68 631.55)"  >
<path style="stroke: none; stroke-width: 1; stroke-dasharray: none; stroke-linecap: butt; stroke-dashoffset: 0; stroke-linejoin: miter; stroke-miterlimit: 4; fill: rgb(255,255,255); fill-rule: nonzero; opacity: 1;" vector-effect="non-scaling-stroke"  transform=" translate(-934.68, -541.55)" d="M 969.49743 559.36319 C 948.15757 559.5200100000001 927.13392 550.47136 912.0395 535.49383 C 907.7805693728691 531.2515030772158 904.027490704251 526.5300246959451 900.85533 521.42383 C 899.8379 519.79212 897.45775 521.5915 898.46645 523.20922 C 910.18915 542.00964 929.71596 555.40228 951.24468 560.3265799999999 C 957.3583907288922 561.7118805135225 963.6125271237868 562.3811070862488 969.88093 562.32076 C 971.7945500000001 562.30669 971.3981100000001 559.34921 969.49743 559.3631799999999 Z" stroke-linecap="round" />
</g>
<g transform="matrix(1 0 0 1 801.87 581.98)"  >
<path style="stroke: none; stroke-width: 1; stroke-dasharray: none; stroke-linecap: butt; stroke-dashoffset: 0; stroke-linejoin: miter; stroke-miterlimit: 4; fill: rgb(255,255,255); fill-rule: nonzero; opacity: 1;" vector-effect="non-scaling-stroke"  transform=" translate(-861.87, -491.98)" d="M 879.30114 480.95 C 879.1149693349993 481.52208910587336 878.6390536669777 481.9523168697649 878.05114 482.08 C 873.1606360616978 483.36143744323675 868.4357139232243 485.20716389987393 863.97155 487.58 C 857.4522804565529 491.02312202204917 851.5324950567776 495.49750584768464 846.44128 500.83 C 846.17128 501.09999999999997 845.91149 501.37 845.66149 501.65 C 845.24108 502.09 844.84118 502.53999999999996 844.44128 503 L 844.44128 498.64 C 845.08141 497.96 845.75133 497.28999999999996 846.44128 496.65 C 850.4612041201723 492.8011142199583 854.9143426246593 489.4318971449734 859.71128 486.60999999999996 Q 869.37121 483.31 879.30114 480.95 Z" stroke-linecap="round" />
</g>
<g transform="matrix(1 0 0 1 908.84 588.13)"  >
<path style="stroke: none; stroke-width: 1; stroke-dasharray: none; stroke-linecap: butt; stroke-dashoffset: 0; stroke-linejoin: miter; stroke-miterlimit: 4; fill: rgb(255,255,255); fill-rule: nonzero; opacity: 1;" vector-effect="non-scaling-stroke"  transform=" translate(-968.84, -498.13)" d="M 984.1 482.87181 C 970.525450882631 488.7062269319843 959.1671642751298 498.720599921527 951.6782900000001 511.45738000000006 C 951.3627204193293 512.2158239956653 951.716122302647 513.0869892215901 952.4709 513.41123 C 953.2293434020578 513.7109067057775 954.0894373646133 513.3619960546727 954.42475 512.6186200000001 C 961.5726108254607 500.58892096023754 972.35638330437 491.14019851067485 985.221 485.635 C 986.98625 484.88084 985.86885 482.11618 984.10008 482.87183999999996 Z" stroke-linecap="round" />
</g>
<g transform="matrix(1 0 0 1 875.5 514.85)"  >
<path style="stroke: none; stroke-width: 1; stroke-dasharray: none; stroke-linecap: butt; stroke-dashoffset: 0; stroke-linejoin: miter; stroke-miterlimit: 4; fill: rgb(242,242,242); fill-rule: nonzero; opacity: 1;" vector-effect="non-scaling-stroke"  transform=" translate(-935.5, -424.85)" d="M 1025.02135 397.94 C 1022.70104 406.76 1018.25135 414.75 1012.72155 422.04 L 1012.7112999999999 422.05 C 1012.2010399999999 422.73 1011.6713 423.42 1011.12145 424.08 L 1011.12145 424.09 C 1007.2820437444989 428.8199567703531 1003.1364223338777 433.2928979264404 998.7112999999999 437.47999999999996 C 982.8045327517189 452.63854048813175 964.8371580351827 465.4752363385725 945.3411799999999 475.61 C 914.6712599999998 491.62999999999994 880.3914699999999 501.09999999999997 846.4412799999999 501.64 C 846.1815099999999 501.65 845.9212799999999 501.65 845.6614899999998 501.65 C 845.2513299999998 501.65999999999997 844.8411799999999 501.65999999999997 844.4412799999999 501.65999999999997 L 844.4412799999999 456.21 C 845.0911799999999 454.96999999999997 845.7610999999999 453.72999999999996 846.4412799999999 452.5 C 855.2641939664635 436.62455593868185 866.0231701220565 421.90540636117004 878.4715499999999 408.68000000000006 C 878.7713499999999 408.35 879.0814099999999 408.02 879.3914699999999 407.7 Q 886.411 400.28999999999996 894.1111999999999 393.59 C 913.8595647229745 376.22622945480856 936.68216847739 362.7103911487682 961.4011999999999 353.74 C 969.3714099999999 350.87999999999994 978.1111999999999 348.59 986.6111999999999 348.13999999999993 C 987.8611999999999 348.06999999999994 989.1014299999999 348.0399999999999 990.3514299999999 348.04999999999995 C 998.1815099999999 348.15999999999997 1005.6912799999999 350.00999999999993 1012.1014299999999 354.59 C 1014.3967737392531 356.2386345338515 1016.4558890046882 358.19340988011555 1018.22155 360.4 C 1018.84118 361.16999999999996 1019.41149 361.96 1019.9612999999999 362.77 L 1019.9612999999999 362.78 C 1026.58141 372.68 1028.12145 386.17 1025.02135 397.94 Z" stroke-linecap="round" />
</g>
<g transform="matrix(1 0 0 1 872.42 513.62)"  >
<path style="stroke: none; stroke-width: 1; stroke-dasharray: none; stroke-linecap: butt; stroke-dashoffset: 0; stroke-linejoin: miter; stroke-miterlimit: 4; fill: rgb(255,255,255); fill-rule: nonzero; opacity: 1;" vector-effect="non-scaling-stroke"  transform=" translate(-932.42, -423.62)" d="M 1019.9613 362.77 L 1019.9613 362.78 C 1019.887299742425 362.844580111875 1019.8069768866269 362.90153479586115 1019.7215500000001 362.95 Q 997.5211200000001 375.865 975.8812200000001 389.71999999999997 C 975.8612200000001 389.72999999999996 975.85143 389.73999999999995 975.8314100000001 389.74999999999994 C 975.773635628516 389.79028033639986 975.7134681987462 389.8270146277618 975.6512400000001 389.85999999999996 Q 953.4061200000001 404.10999999999996 931.7913700000001 419.31999999999994 C 931.1912800000001 419.73999999999995 930.5813700000001 420.16999999999996 929.9715500000001 420.5999999999999 Q 915.0462500000001 431.1449999999999 900.4315500000001 442.13999999999993 Q 872.8309600000001 462.92999999999995 846.4413200000001 485.25999999999993 C 845.7713900000001 485.81999999999994 845.1112400000002 486.38999999999993 844.4413200000001 486.9599999999999 L 844.4413200000001 483.06999999999994 C 845.1014700000002 482.49999999999994 845.7713900000001 481.92999999999995 846.4413200000001 481.36999999999995 Q 856.5516700000002 472.8349999999999 866.8412200000001 464.53999999999996 C 868.8915100000002 462.89 870.9510800000002 461.23999999999995 873.0111400000002 459.60999999999996 Q 900.4615700000002 437.75499999999994 929.1415100000002 417.53 L 929.1512800000002 417.53 Q 934.7916500000001 413.55499999999995 940.4510800000002 409.65 Q 956.5314100000002 398.58 972.9715900000001 388.03999999999996 C 973.7611400000001 387.53 974.5614300000001 387.02 975.3612400000001 386.51 Q 996.40664 373.07 1018.0013700000001 360.51 C 1018.0716139485784 360.46731647345393 1018.1452723855194 360.4305240474094 1018.2215900000001 360.4 C 1019.72155 359.8 1021.13122 361.78 1019.9613 362.77 Z" stroke-linecap="round" />
</g>
<g transform="matrix(1 0 0 1 911.38 516.25)"  >
<path style="stroke: none; stroke-width: 1; stroke-dasharray: none; stroke-linecap: butt; stroke-dashoffset: 0; stroke-linejoin: miter; stroke-miterlimit: 4; fill: rgb(255,255,255); fill-rule: nonzero; opacity: 1;" vector-effect="non-scaling-stroke"  transform=" translate(-971.38, -426.25)" d="M 1010.4094 421.13341 C 991.58448 431.18512000000004 968.76345 432.93793000000005 948.43902 426.68609000000004 C 942.6968273980149 424.9076094723145 937.1800203656202 422.46983692526766 931.9989400000001 419.42152999999996 C 930.3399400000001 418.44917000000004 929.0680500000001 421.14827 930.71279 422.11229000000003 C 949.82716 433.31577000000004 973.3405300000001 436.10516 994.69299 430.46537 C 1000.7505576728868 428.85217679344225 1006.5998483443839 426.53962719371543 1012.12287 423.57437 C 1013.81097 422.673 1012.08608 420.23812 1010.4094 421.13337 Z" stroke-linecap="round" />
</g>
<g transform="matrix(1 0 0 1 821.32 516.3)"  >
<path style="stroke: none; stroke-width: 1; stroke-dasharray: none; stroke-linecap: butt; stroke-dashoffset: 0; stroke-linejoin: miter; stroke-miterlimit: 4; fill: rgb(255,255,255); fill-rule: nonzero; opacity: 1;" vector-effect="non-scaling-stroke"  transform=" translate(-881.32, -426.3)" d="M 869.56249 457.72184 C 868.6306568585901 452.4869303184432 868.3110381830978 447.16138200430476 868.61008 441.8526 C 869.2837091663556 429.7452494826767 872.9909378289777 418.0016457716769 879.3907800000001 407.70195 Q 886.4189600000001 400.29445 894.1141 393.58969 C 894.2127220529717 394.1844582751246 893.9898264898126 394.7870812734041 893.52791 395.17452000000003 C 889.7946340372647 398.5815863542651 886.4685662450516 402.40961581676333 883.6162 406.58208 C 873.4275257332073 421.45221203926354 869.4508508502407 439.7142273792517 872.5340600000001 457.4744 C 872.635471521992 457.8839840418596 872.5166413266818 458.3168351673342 872.22032 458.61723 C 871.7851480373004 458.9963063099318 871.181531023915 459.11604982264686 870.6346079647298 458.931798219661 C 870.0876849055445 458.74754661667515 869.6795725689584 458.28696401994387 869.56249 457.72184 Z" stroke-linecap="round" />
</g>
<g transform="matrix(1 0 0 1 921.4 457.21)"  >
<path style="stroke: none; stroke-width: 1; stroke-dasharray: none; stroke-linecap: butt; stroke-dashoffset: 0; stroke-linejoin: miter; stroke-miterlimit: 4; fill: rgb(255,255,255); fill-rule: nonzero; opacity: 1;" vector-effect="non-scaling-stroke"  transform=" translate(-981.4, -367.21)" d="M 987.809 346.61236 C 978.4981086414527 358.0847653617959 973.0915371501161 372.22928091718865 972.37619 386.98723 C 972.4490422861566 387.8054701533715 973.1666794690136 388.4127805010265 973.9857 388.3493 C 974.7965517857226 388.2623638446752 975.3961386248475 387.55385325899323 975.34777 386.73979 C 976.0895608482084 372.76642404888383 981.2500910838514 359.3897038069934 990.08519 348.53861 C 991.2981 347.05076 989.02433 345.12154 987.809 346.61236 Z" stroke-linecap="round" />
</g>
<g transform="matrix(1 0 0 1 804.49 491.24)"  >
<path style="stroke: none; stroke-width: 1; stroke-dasharray: none; stroke-linecap: butt; stroke-dashoffset: 0; stroke-linejoin: miter; stroke-miterlimit: 4; fill: rgb(242,242,242); fill-rule: nonzero; opacity: 1;" vector-effect="non-scaling-stroke"  transform=" translate(-864.49, -401.24)" d="M 884.25133 379.47 L 884.25133 379.48 C 884.18151 380.34005 884.10143 381.19 884.0111 382.04 L 884.0111 382.06 C 883.3159526973262 388.1104510365981 882.230355215131 394.1096297382062 880.7611 400.02 C 880.0613900000001 402.91999999999996 879.3011 405.79999999999995 878.4715500000001 408.68 C 878.3714500000001 409.05 878.2611 409.42 878.1512400000001 409.78000000000003 L 878.1512400000001 409.79 C 875.7088716930032 418.16610131989273 872.7908858084687 426.39612529698303 869.4114900000002 434.44 C 863.1934101253847 449.2496795800287 855.497741927993 463.39457034480097 846.4412800000002 476.65999999999997 C 845.7913700000003 477.63 845.1214500000002 478.59999999999997 844.4412800000002 479.55999999999995 L 844.4412800000002 322.96 C 845.1112000000003 322.91999999999996 845.7713500000002 322.91999999999996 846.4412800000002 322.94 Q 846.9210100000003 322.94 847.4012800000003 322.96999999999997 C 850.2229043678078 323.11826671276 853.0099568923775 323.6601927510635 855.6815500000002 324.58004999999997 C 856.6214900000002 324.89005 857.5311600000002 325.24005 858.4315500000002 325.63005 C 869.3412200000002 330.41004999999996 877.9115500000003 340.95005 881.6312600000002 352.54005 C 884.42126 361.22 884.98131 370.35 884.25133 379.47 Z" stroke-linecap="round" />
</g>
<g transform="matrix(1 0 0 1 791.47 428.85)"  >
<path style="stroke: none; stroke-width: 1; stroke-dasharray: none; stroke-linecap: butt; stroke-dashoffset: 0; stroke-linejoin: miter; stroke-miterlimit: 4; fill: rgb(255,255,255); fill-rule: nonzero; opacity: 1;" vector-effect="non-scaling-stroke"  transform=" translate(-851.47, -338.85)" d="M 858.43151 325.63 C 858.4080223984889 325.72804106013496 858.3708759621566 325.8222957241408 858.32116 325.90999999999997 Q 852.24645 337.71509 846.44128 349.64 C 845.77135 351.01 845.10143 352.39 844.44128 353.76 L 844.44128 346.96 Q 845.43151 344.91994 846.44128 342.88 Q 850.92663 333.79 855.56139 324.78 C 855.595371582939 324.70987699646724 855.6355725542373 324.6429423123209 855.68151 324.58 C 856.60143 323.26 858.88122 324.16 858.43151 325.63 Z" stroke-linecap="round" />
</g>
<g transform="matrix(1 0 0 1 804.6 488.04)"  >
<path style="stroke: none; stroke-width: 1; stroke-dasharray: none; stroke-linecap: butt; stroke-dashoffset: 0; stroke-linejoin: miter; stroke-miterlimit: 4; fill: rgb(255,255,255); fill-rule: nonzero; opacity: 1;" vector-effect="non-scaling-stroke"  transform=" translate(-864.6, -398.04)" d="M 884.57116 381.08 C 884.3914699999999 381.4 884.2112999999999 381.71995 884.0110999999999 382.03999999999996 C 881.0747585524747 387.1571841228986 877.5801024346028 391.9330272309546 873.5911799999999 396.28 C 865.9299167040482 404.5919013296619 856.7037035814956 411.3102403818449 846.4412799999999 416.04999999999995 C 845.7811199999999 416.36999999999995 845.1111999999999 416.66999999999996 844.4412799999999 416.94999999999993 L 844.4412799999999 413.7 C 845.1111999999999 413.4 845.7811199999999 413.09 846.4412799999999 412.77 C 861.2965059843992 405.68433251721547 873.6359820353534 394.2345065485567 881.8113899999998 379.95 C 882.0500641403705 379.53733900907093 882.456027365392 379.2485209860952 882.9241339326536 379.15835070050906 C 883.3922404999154 379.06818041492295 883.8764424622218 379.18552797631185 884.2513299999998 379.47999999999996 C 884.5061331080223 379.6495829650967 884.6830319257035 379.9135395558933 884.7430278607007 380.21367867978876 C 884.8030237956979 380.51381780368416 884.741190658348 380.8254954202167 884.57116 381.08 Z" stroke-linecap="round" />
</g>
<g transform="matrix(1 0 0 1 449.94 312)"  >
<path style="stroke: none; stroke-width: 1; stroke-dasharray: none; stroke-linecap: butt; stroke-dashoffset: 0; stroke-linejoin: miter; stroke-miterlimit: 4; fill: rgb(240,90,126); fill-rule: nonzero; opacity: 1;" vector-effect="non-scaling-stroke"  transform=" translate(-509.94, -222)" d="M 846.44128 200.5 L 846.44128 276.5 L 844.44128 276.5 L 844.44128 275.69 L 175.44128 275.69 L 175.44128 276.5 L 173.44128 276.5 L 173.44128 200.5 C 173.45916247517886 182.28201556052755 188.22329556052756 167.51788247517885 206.44128 167.5 L 813.44128 167.5 C 831.6592644394725 167.51788247517885 846.4233975248211 182.28201556052755 846.44128 200.5 Z" stroke-linecap="round" />
</g>
<g transform="matrix(1 0 0 1 448.89 506.43)"  >
<path style="stroke: none; stroke-width: 1; stroke-dasharray: none; stroke-linecap: butt; stroke-dashoffset: 0; stroke-linejoin: miter; stroke-miterlimit: 4; fill: rgb(63,61,86); fill-rule: nonzero; opacity: 1;" vector-effect="non-scaling-stroke"  transform=" translate(-509.94, -417.5)" d="M 813.44128 167.5 L 206.44128 167.5 C 188.22329556052753 167.51788247517885 173.45916247517886 182.28201556052755 173.44128 200.5 L 173.44128 634.5 C 173.45916247517886 652.7179844394725 188.22329556052756 667.4821175248211 206.44128 667.5 L 813.44128 667.5 C 831.6592644394725 667.4821175248211 846.4233975248212 652.7179844394725 846.44128 634.5 L 846.44128 200.5 C 846.4233975248211 182.28201556052753 831.6592644394725 167.51788247517885 813.44128 167.5 Z M 844.44128 634.5 C 844.4194408723803 651.611773018248 830.553053018248 665.4781608723803 813.44128 665.5 L 206.44128 665.5 C 189.3295047011558 665.4781663683056 175.46311363169443 651.6117752988442 175.44128 634.5 L 175.44128 200.5 C 175.46311363169443 183.3882247011558 189.32950470115577 169.52183363169445 206.44128 169.5 L 813.44128 169.5 C 830.553053018248 169.52183912761973 844.4194408723803 183.38822698175198 844.44128 200.5 Z" stroke-linecap="round" />
</g>
<g transform="matrix(1 0 0 1 249.44 312)"  >
<circle style="stroke: none; stroke-width: 1; stroke-dasharray: none; stroke-linecap: butt; stroke-dashoffset: 0; stroke-linejoin: miter; stroke-miterlimit: 4; fill: rgb(255,255,255); fill-rule: nonzero; opacity: 1;" vector-effect="non-scaling-stroke"  cx="0" cy="0" r="20" />
</g>
<g transform="matrix(1 0 0 1 650.44 312)"  >
<circle style="stroke: none; stroke-width: 1; stroke-dasharray: none; stroke-linecap: butt; stroke-dashoffset: 0; stroke-linejoin: miter; stroke-miterlimit: 4; fill: rgb(255,255,255); fill-rule: nonzero; opacity: 1;" vector-effect="non-scaling-stroke"  cx="0" cy="0" r="20" />
</g>
<g transform="matrix(1 0 0 1 247.74 487.87)"  >
<path style="stroke: none; stroke-width: 1; stroke-dasharray: none; stroke-linecap: butt; stroke-dashoffset: 0; stroke-linejoin: miter; stroke-miterlimit: 4; fill: rgb(240,90,126); fill-rule: nonzero; opacity: 1;" vector-effect="non-scaling-stroke"  transform=" translate(-307.74, -397.87)" d="M 367.22591 445.00191 L 248.24968 445.00191 C 237.7548731177598 444.99003403598647 229.2501114842709 436.48527687599204 229.23823000000002 425.99047 L 229.23823000000002 369.75784 C 229.2501114842709 359.26303312400796 237.7548731177598 350.75827596401354 248.24967999999998 350.7464 L 367.22591 350.7464 C 377.7207168822402 350.75827596401354 386.22547851572915 359.26303312400796 386.23736 369.75784 L 386.23736 425.99046999999996 C 386.2254785157292 436.485276875992 377.72071688224025 444.99003403598647 367.22591 445.00191 Z" stroke-linecap="round" />
</g>
<g transform="matrix(1 0 0 1 450.14 487.87)"  >
<path style="stroke: none; stroke-width: 1; stroke-dasharray: none; stroke-linecap: butt; stroke-dashoffset: 0; stroke-linejoin: miter; stroke-miterlimit: 4; fill: rgb(240,90,126); fill-rule: nonzero; opacity: 1;" vector-effect="non-scaling-stroke"  transform=" translate(-510.14, -397.87)" d="M 569.62448 445.00191 L 450.64824 445.00191 C 440.15343702300146 444.99002852638444 431.64868147361557 436.48527297699854 431.6368 425.99047 L 431.6368 369.75784 C 431.64868147361557 359.26303702300146 440.1534370230014 350.75828147361557 450.64824 350.7464 L 569.62448 350.7464 C 580.1192829769985 350.75828147361557 588.6240385263843 359.2630370230014 588.6359199999999 369.75784 L 588.6359199999999 425.99046999999996 C 588.6240385263844 436.48527297699854 580.1192829769985 444.99002852638444 569.62448 445.00191 Z" stroke-linecap="round" />
</g>
<g transform="matrix(1 0 0 1 450.14 632.59)"  >
<path style="stroke: none; stroke-width: 1; stroke-dasharray: none; stroke-linecap: butt; stroke-dashoffset: 0; stroke-linejoin: miter; stroke-miterlimit: 4; fill: rgb(242,242,242); fill-rule: nonzero; opacity: 1;" vector-effect="non-scaling-stroke"  transform=" translate(-510.14, -542.59)" d="M 569.62448 590.29329 L 450.64824 590.29329 C 439.83537909176096 590.2811218020979 431.07285819790206 581.518600908239 431.06068999999997 570.70574 L 431.06068999999997 514.47255 C 431.0728526987971 503.65968681033195 439.835376810332 494.89716269879705 450.64824 494.885 L 569.62448 494.885 C 580.4373314739404 494.89717922783484 589.1998373329801 503.6596985074186 589.212 514.47255 L 589.212 570.70574 C 589.1998373329801 581.5185914925813 580.4373314739404 590.2811107721651 569.62448 590.29329 Z" stroke-linecap="round" />
</g>
<g transform="matrix(1 0 0 1 247.35 632.59)"  >
<path style="stroke: none; stroke-width: 1; stroke-dasharray: none; stroke-linecap: butt; stroke-dashoffset: 0; stroke-linejoin: miter; stroke-miterlimit: 4; fill: rgb(242,242,242); fill-rule: nonzero; opacity: 1;" vector-effect="non-scaling-stroke"  transform=" translate(-307.35, -542.59)" d="M 366.83575 590.29329 L 247.85951 590.29329 C 237.04666471273185 590.2810997634125 228.28416815550773 581.5185853121395 228.272 570.70574 L 228.272 514.47255 C 228.2841626564218 503.6597024064427 237.04666243130285 494.8971847375062 247.85951 494.885 L 366.83575 494.885 C 377.6486092906367 494.89716268820746 386.4111317915197 503.6596807155741 386.42330000000004 514.47254 L 386.42330000000004 570.70573 C 386.41113731177916 581.5185948134807 377.6486148072699 590.2811217915063 366.83575 590.29329 Z" stroke-linecap="round" />
</g>
<g transform="matrix(1 0 0 1 652.53 632.59)"  >
<path style="stroke: none; stroke-width: 1; stroke-dasharray: none; stroke-linecap: butt; stroke-dashoffset: 0; stroke-linejoin: miter; stroke-miterlimit: 4; fill: rgb(242,242,242); fill-rule: nonzero; opacity: 1;" vector-effect="non-scaling-stroke"  transform=" translate(-712.53, -542.59)" d="M 772.023 590.29329 L 653.0468 590.29329 C 642.233940715574 590.2811217915196 633.4714226882074 581.5185992906366 633.45926 570.70574 L 633.45926 514.47255 C 633.4714226882074 503.65969070936325 642.233940715574 494.8971682084803 653.0468 494.885 L 772.023 494.885 C 782.8358592906367 494.89716268820746 791.5983817915196 503.6596807155741 791.61055 514.47254 L 791.61055 570.70573 C 791.5983873117791 581.5185948134807 782.8358648072699 590.2811217915063 772.023 590.29329 Z" stroke-linecap="round" />
</g>
<g transform="matrix(1 0 0 1 652.53 487.41)"  >
<path style="stroke: none; stroke-width: 1; stroke-dasharray: none; stroke-linecap: butt; stroke-dashoffset: 0; stroke-linejoin: miter; stroke-miterlimit: 4; fill: rgb(242,242,242); fill-rule: nonzero; opacity: 1;" vector-effect="non-scaling-stroke"  transform=" translate(-712.53, -397.41)" d="M 772.023 445.115 L 653.0468 445.115 C 642.233944614605 445.10283180211127 633.4714281978887 436.34031538539506 633.45926 425.52746 L 633.45926 369.29426 C 633.4714226882074 358.4814007093633 642.233940715574 349.7188782084803 653.0468 349.70671 L 772.023 349.70671 C 782.835860908239 349.7188781979021 791.598381802098 358.481399091761 791.61055 369.29426 L 791.61055 425.52745 C 791.5983873012029 436.340313189668 782.835863189668 445.1028373012029 772.023 445.115 Z" stroke-linecap="round" />
</g>
<g transform="matrix(1 0 0 1 247.74 486.75)"  >
<circle style="stroke: none; stroke-width: 1; stroke-dasharray: none; stroke-linecap: butt; stroke-dashoffset: 0; stroke-linejoin: miter; stroke-miterlimit: 4; fill: rgb(255,255,255); fill-rule: nonzero; opacity: 1;" vector-effect="non-scaling-stroke"  cx="0" cy="0" r="32.26184" />
</g>
<g transform="matrix(1 0 0 1 247.58 487.91)"  >
<path style="stroke: none; stroke-width: 1; stroke-dasharray: none; stroke-linecap: butt; stroke-dashoffset: 0; stroke-linejoin: miter; stroke-miterlimit: 4; fill: rgb(108,99,255); fill-rule: nonzero; opacity: 1;" vector-effect="non-scaling-stroke"  transform=" translate(-307.58, -397.91)" d="M 304.5399 410.1813 C 303.8140493225215 410.18265998933526 303.10744183598536 409.94794077860377 302.52666999999997 409.51255000000003 L 302.49066999999997 409.48555000000005 L 294.90891999999997 403.68069 C 293.95230538450556 402.9492407478056 293.45893635151276 401.7627495449102 293.6148762978751 400.56867573469503 C 293.7708162442375 399.3746019244799 294.5523413167328 398.3546053860907 295.6647163374502 397.8933556225168 C 296.7770913581677 397.43210585894286 298.051085656357 397.599774894384 299.00624 398.33313000000004 L 303.91713 402.09873000000005 L 315.52233 386.96386000000007 C 316.0659023015581 386.25490620066495 316.8688515437982 385.790933633532 317.7545248532434 385.6740185979323 C 318.6401981626886 385.55710356233254 319.5360397649711 385.79682392501746 320.24496 386.34044000000006 L 320.17280999999997 386.43844000000007 L 320.24681 386.3418900000001 C 321.721126615914 387.4750026731351 322.0000099350386 389.5876955794575 320.87021999999996 391.0645600000001 L 307.21971999999994 408.86680000000007 C 306.57980121538594 409.6982690429869 305.58910363620856 410.18422405781206 304.5399 410.1813 Z" stroke-linecap="round" />
</g>
<g transform="matrix(1 0 0 1 450.71 487.41)"  >
<circle style="stroke: none; stroke-width: 1; stroke-dasharray: none; stroke-linecap: butt; stroke-dashoffset: 0; stroke-linejoin: miter; stroke-miterlimit: 4; fill: rgb(255,255,255); fill-rule: nonzero; opacity: 1;" vector-effect="non-scaling-stroke"  cx="0" cy="0" r="32.26184" />
</g>
<g transform="matrix(1 0 0 1 450.55 487.45)"  >
<path style="stroke: none; stroke-width: 1; stroke-dasharray: none; stroke-linecap: butt; stroke-dashoffset: 0; stroke-linejoin: miter; stroke-miterlimit: 4; fill: rgb(108,99,255); fill-rule: nonzero; opacity: 1;" vector-effect="non-scaling-stroke"  transform=" translate(-510.55, -397.45)" d="M 507.51457 409.718 C 506.78871751204355 409.7193621427586 506.0821071875841 409.4846466650316 505.50133 409.04926 L 505.46533 409.02226 L 497.88357 403.2174 C 496.4068820815975 402.08595356298787 496.12700856298795 399.97164291840255 497.258455 398.494955 C 498.38990143701216 397.01826708159746 500.5042120815975 396.7383935629879 501.9809 397.86984 L 506.89178000000004 401.63544 L 518.49698 386.50056 C 519.0405588043967 385.7916116035423 519.8435099640667 385.32764425426495 520.7291832209205 385.21073134854794 C 521.6148564777744 385.093818442831 522.5106974483031 385.3335374899115 523.21962 385.87715000000003 L 523.14747 385.97515000000004 L 523.22147 385.87861000000004 C 524.6957957097911 387.0117130711775 524.9746803975373 389.1244118720178 523.84488 390.60127000000006 L 510.19439 408.40351000000004 C 509.5544691614972 409.23497528352567 508.5637719029638 409.7209264441893 507.51457 409.718 Z" stroke-linecap="round" />
</g>
<g transform="matrix(1 0 0 1 649.11 585.18)"  >
<path style="stroke: none; stroke-width: 1; stroke-dasharray: none; stroke-linecap: butt; stroke-dashoffset: 0; stroke-linejoin: miter; stroke-miterlimit: 4; fill: rgb(160,97,106); fill-rule: nonzero; opacity: 1;" vector-effect="non-scaling-stroke"  transform=" translate(-709.11, -495.18)" d="M 728.75351 549.64979 C 730.8990347422765 547.3036664597498 731.8951743761704 544.1277083278732 731.47388717609 540.9765039262379 C 731.0525999760096 537.8252995246025 729.2571617982345 535.022549807729 726.57069 533.3224200000001 L 708.55952 437.1496900000001 L 686.65494 445.2723200000001 L 711.24713 537.25286 C 708.632762450781 542.0608228098997 710.0276532620685 548.064320370067 714.4939952268018 551.2271060912075 C 718.960337191535 554.3898918123481 725.0863894730909 553.7122585974059 728.75351 549.64979 Z" stroke-linecap="round" />
</g>
<g transform="matrix(1 0 0 1 514.9 517.13)"  >
<path style="stroke: none; stroke-width: 1; stroke-dasharray: none; stroke-linecap: butt; stroke-dashoffset: 0; stroke-linejoin: miter; stroke-miterlimit: 4; fill: rgb(160,97,106); fill-rule: nonzero; opacity: 1;" vector-effect="non-scaling-stroke"  transform=" translate(-574.9, -427.13)" d="M 553.96858 402.90038 C 554.0230723949318 403.49756760060944 554.0303850635631 404.09812260176614 553.99045 404.69646 L 596.58045 437.47601 L 608.6581500000001 432.51644 L 618.5253700000001 449.76554999999996 L 597.99737 460.62335999999993 C 594.5908738055884 462.42514964236807 590.4039370249009 461.76208176883404 587.72085 458.9959099999999 L 545.14985 415.1067099999999 C 540.5359103960718 416.1473069227476 535.759463373596 414.22431789383126 533.1536281954036 410.2770525558505 C 530.5477930172112 406.32978721786975 530.6563273165432 401.18191840935106 533.4262160671137 397.3479913190438 C 536.1961048176842 393.51406422873646 541.0493574528008 391.79410148972573 545.6153379836009 393.0282418450678 C 550.1813185144009 394.26238220040983 553.5072472763726 398.19309852623905 553.96853 402.9003799999999 Z" stroke-linecap="round" />
</g>
<g transform="matrix(1 0 0 1 584.42 791.71)"  >
<polygon style="stroke: none; stroke-width: 1; stroke-dasharray: none; stroke-linecap: butt; stroke-dashoffset: 0; stroke-linejoin: miter; stroke-miterlimit: 4; fill: rgb(160,97,106); fill-rule: nonzero; opacity: 1;" vector-effect="non-scaling-stroke"  points="9.04,18.64 -3.21,18.64 -9.05,-18.64 9.05,-18.64 9.04,18.64 " />
</g>
<g transform="matrix(1 0 0 1 576.83 814.29)"  >
<path style="stroke: none; stroke-width: 1; stroke-dasharray: none; stroke-linecap: butt; stroke-dashoffset: 0; stroke-linejoin: miter; stroke-miterlimit: 4; fill: rgb(47,46,65); fill-rule: nonzero; opacity: 1;" vector-effect="non-scaling-stroke"  transform=" translate(-636.83, -724.29)" d="M 656.59617 732.23337 L 617.06566 732.2319100000001 L 617.06566 731.7319100000001 C 617.0656122582952 727.6511718688942 618.6866744504008 723.7375599531252 621.572214559762 720.8520648527639 C 624.4577546691231 717.9665697524026 628.3713918701352 716.3455686059573 632.45213 716.3456800000001 L 632.45313 716.3456800000001 L 656.5969299999999 716.3466800000001 Z" stroke-linecap="round" />
</g>
<g transform="matrix(1 0 0 1 630.42 791.71)"  >
<polygon style="stroke: none; stroke-width: 1; stroke-dasharray: none; stroke-linecap: butt; stroke-dashoffset: 0; stroke-linejoin: miter; stroke-miterlimit: 4; fill: rgb(160,97,106); fill-rule: nonzero; opacity: 1;" vector-effect="non-scaling-stroke"  points="9.04,18.64 -3.21,18.64 -9.05,-18.64 9.05,-18.64 9.04,18.64 " />
</g>
<g transform="matrix(1 0 0 1 622.83 814.29)"  >
<path style="stroke: none; stroke-width: 1; stroke-dasharray: none; stroke-linecap: butt; stroke-dashoffset: 0; stroke-linejoin: miter; stroke-miterlimit: 4; fill: rgb(47,46,65); fill-rule: nonzero; opacity: 1;" vector-effect="non-scaling-stroke"  transform=" translate(-682.83, -724.29)" d="M 702.59617 732.23337 L 663.06566 732.2319100000001 L 663.06566 731.7319100000001 C 663.0656122582952 727.6511718688942 664.6866744504008 723.7375599531252 667.572214559762 720.8520648527639 C 670.4577546691231 717.9665697524026 674.3713918701352 716.3455686059573 678.45213 716.3456800000001 L 678.45313 716.3456800000001 L 702.5969299999999 716.3466800000001 Z" stroke-linecap="round" />
</g>
<g transform="matrix(1 0 0 1 603.45 726.15)"  >
<path style="stroke: none; stroke-width: 1; stroke-dasharray: none; stroke-linecap: butt; stroke-dashoffset: 0; stroke-linejoin: miter; stroke-miterlimit: 4; fill: rgb(47,46,65); fill-rule: nonzero; opacity: 1;" vector-effect="non-scaling-stroke"  transform=" translate(-663.45, -636.15)" d="M 638.6643 712.9793 C 636.3447564713817 712.9814541608005 634.4053341118768 711.2165163198185 634.1894500000001 708.9070399999999 L 623.50586 565.21758 L 624.0107399999999 565.17658 L 697.5317399999999 559.1335799999999 L 697.5515199999999 559.65604 L 703.396 708.50664 C 703.4417483533551 709.728467812297 702.9883092216544 710.9163040777341 702.140012938096 711.7968434181605 C 701.2917166545375 712.6773827585868 700.1216139697277 713.1747978233426 698.89893 713.17464 L 684.48339 713.17464 C 682.2585428958635 713.1852678175476 680.3637784479573 711.5597872413431 680.03588 709.35921 L 660.45971 589.11407 C 660.4199889329552 588.8565613423224 660.1891755333797 588.6727210112994 659.9293069407191 588.691609804131 C 659.6694383480584 588.7104985969627 659.4676357793832 588.9257840261266 659.46557 589.18633 L 658.57763 707.91 C 658.5585254647004 710.290024844086 656.6911365682226 712.2444672708594 654.31445 712.3719199999999 L 638.90576 712.9725 C 638.82495 712.97735 638.74414 712.9793 638.6643 712.9793 Z" stroke-linecap="round" />
</g>
<g transform="matrix(1 0 0 1 591.21 449.06)"  >
<circle style="stroke: none; stroke-width: 1; stroke-dasharray: none; stroke-linecap: butt; stroke-dashoffset: 0; stroke-linejoin: miter; stroke-miterlimit: 4; fill: rgb(160,97,106); fill-rule: nonzero; opacity: 1;" vector-effect="non-scaling-stroke"  cx="0" cy="0" r="24.56103" />
</g>
<g transform="matrix(1 0 0 1 600.14 574.6)"  >
<path style="stroke: none; stroke-width: 1; stroke-dasharray: none; stroke-linecap: butt; stroke-dashoffset: 0; stroke-linejoin: miter; stroke-miterlimit: 4; fill: rgb(63,61,86); fill-rule: nonzero; opacity: 1;" vector-effect="non-scaling-stroke"  transform=" translate(-660.14, -484.6)" d="M 655.96792 574.38164 C 645.2327701831515 574.3496028227588 634.5495920043792 572.8895314692904 624.1995300000001 570.03985 C 622.1463753367414 569.4422091125314 620.7950432375729 567.4850243598532 620.96373 565.35332 C 624.2701800000001 515.6599600000001 625.04758 477.0964900000001 618.0946700000001 450.4143200000001 C 615.13125 439.0422500000001 616.47667 427.0652000000001 621.7857500000001 417.55446000000006 C 629.7756700000001 403.2414600000001 644.4612200000001 394.53004000000004 660.1259100000001 394.8308200000001 L 660.1259100000001 394.8308200000001 Q 661.2487800000001 394.85206000000005 662.3939600000001 394.9109000000001 C 686.1668600000002 396.1350200000001 704.6913100000002 417.6413700000001 703.6882400000001 442.85280000000006 L 698.90647 563.02125 C 698.870749507291 564.8140864900352 697.7600749837105 566.4094349828257 696.09109 567.0652 C 683.2638067197647 571.8908826015692 669.6728918587577 574.3691791351099 655.96792 574.38164 Z" stroke-linecap="round" />
</g>
<g transform="matrix(1 0 0 1 569.33 525.93)"  >
<path style="stroke: none; stroke-width: 1; stroke-dasharray: none; stroke-linecap: butt; stroke-dashoffset: 0; stroke-linejoin: miter; stroke-miterlimit: 4; fill: rgb(63,61,86); fill-rule: nonzero; opacity: 1;" vector-effect="non-scaling-stroke"  transform=" translate(-629.33, -435.93)" d="M 622.13643 459.64084 L 603.7388100000001 437.09635000000003 C 602.67960430242 435.7983505833728 602.2378366798727 434.1035921997903 602.5286227953784 432.45369443617585 C 602.8194089108842 430.8037966725615 603.8139467620706 429.36217984635147 605.2530800000001 428.5045 L 630.17456 413.65445 C 637.0392641323878 408.1155972856396 647.0916766834001 409.17682949185723 652.6484708902858 416.02701856654113 C 658.2052650971715 422.8772076412251 657.1703371254848 432.9323623384282 650.3347100000001 438.50706 L 630.85742 459.88012000000003 C 629.7285892446638 461.11804833248556 628.1168290221534 461.80332206798533 626.4421308063364 461.7573730037633 C 624.7674325905194 461.7114239395412 623.1956729383442 460.9388032672664 622.13642 459.64084 Z" stroke-linecap="round" />
</g>
<g transform="matrix(1 0 0 1 630.77 520.01)"  >
<path style="stroke: none; stroke-width: 1; stroke-dasharray: none; stroke-linecap: butt; stroke-dashoffset: 0; stroke-linejoin: miter; stroke-miterlimit: 4; fill: rgb(63,61,86); fill-rule: nonzero; opacity: 1;" vector-effect="non-scaling-stroke"  transform=" translate(-690.77, -430.01)" d="M 680.01136 456.81194 C 678.4820653755129 456.1277348660432 677.3268220115141 454.8111052356125 676.84727 453.20583 L 668.5652699999999 425.50057 C 664.821834689527 417.51274624104053 668.249512692685 408.0020598504873 676.228047332634 404.23886688081035 C 684.2065819725831 400.47567391113336 693.7257224213377 403.8798033489888 697.50865 411.849 L 713.525 436.03743 C 714.4498286896522 437.4343574450943 714.7208155434148 439.164653422281 714.267347229484 440.7774401038736 C 713.8138789155531 442.3902267854661 712.6808706646148 443.7257605165588 711.16356 444.43602999999996 L 684.8093 456.77212999999995 C 683.2920471495369 457.4832555293613 681.5402040000562 457.49779111667186 680.01136 456.81194 Z" stroke-linecap="round" />
</g>
<g transform="matrix(1 0 0 1 586.82 444.75)"  >
<path style="stroke: none; stroke-width: 1; stroke-dasharray: none; stroke-linecap: butt; stroke-dashoffset: 0; stroke-linejoin: miter; stroke-miterlimit: 4; fill: rgb(47,46,65); fill-rule: nonzero; opacity: 1;" vector-effect="non-scaling-stroke"  transform=" translate(-646.82, -354.75)" d="M 663.35014 379.21724 L 645.14414 375.05019 C 643.2662 374.62036 641.01001 373.80028 640.74957 371.89146 C 640.3995699999999 369.32633 644.09106 367.53933 643.7505699999999 364.97292 C 643.4207399999999 362.48714 640.0580299999999 362.16677 637.66022 361.43300999999997 C 633.017635539413 359.804579314648 630.5065397353786 354.7843753836943 631.98786 350.09277999999995 C 629.3934899999999 353.74877999999995 623.4663099999999 354.06190999999995 620.10131 351.09989999999993 C 616.7363100000001 348.1378899999999 616.09088 342.7637699999999 618.11168 338.76212999999996 C 620.325970667463 334.7754766677197 624.310340417747 332.08535831850946 628.83568 331.52162999999996 C 633.3217242223161 331.012929921504 637.8573539206568 331.858500722507 641.85874 333.94949999999994 C 642.1253800000001 331.11610999999994 645.66295 329.9674299999999 648.50874 329.94214999999997 C 660.6266666962555 330.0833726552059 671.3230489854533 337.89044722823604 675.15189 349.38845 C 678.6438899999999 360.64056999999997 676.30808 372.97479999999996 666.53769 379.55838 Z" stroke-linecap="round" />
</g>
<g transform="matrix(1 0 0 1 596.23 821.5)"  >
<path style="stroke: none; stroke-width: 1; stroke-dasharray: none; stroke-linecap: butt; stroke-dashoffset: 0; stroke-linejoin: miter; stroke-miterlimit: 4; fill: rgb(63,61,86); fill-rule: nonzero; opacity: 1;" vector-effect="non-scaling-stroke"  transform=" translate(-656.23, -731.5)" d="M 846.72868 732.5 L 465.72868000000005 732.5 C 465.17639525016926 732.5 464.72868000000005 732.0522847498308 464.72868000000005 731.5 C 464.72868000000005 730.9477152501692 465.17639525016926 730.5 465.72868000000005 730.5 L 846.72868 730.5 C 847.2809647498309 730.5 847.72868 730.9477152501692 847.72868 731.5 C 847.72868 732.0522847498308 847.2809647498309 732.5 846.72868 732.5 Z" stroke-linecap="round" />
</g>
<g transform="matrix(NaN NaN NaN NaN 0 0)"  >
<g style=""   >
</g>
</g>
<g transform="matrix(NaN NaN NaN NaN 0 0)"  >
<g style=""   >
</g>
</g>
<g transform="matrix(NaN NaN NaN NaN 0 0)"  >
<g style=""   >
</g>
</g>
<g transform="matrix(NaN NaN NaN NaN 0 0)"  >
<g style=""   >
</g>
</g>
<g transform="matrix(NaN NaN NaN NaN 0 0)"  >
<g style=""   >
</g>
</g>
<g transform="matrix(NaN NaN NaN NaN 0 0)"  >
<g style=""   >
</g>
</g>
<g transform="matrix(NaN NaN NaN NaN 0 0)"  >
<g style=""   >
</g>
</g>
<g transform="matrix(NaN NaN NaN NaN 0 0)"  >
<g style=""   >
</g>
</g>
</svg>