<?xml version="1.0" encoding="UTF-8" standalone="no" ?>
<!DOCTYPE svg PUBLIC "-//W3C//DTD SVG 1.1//EN" "http://www.w3.org/Graphics/SVG/1.1/DTD/svg11.dtd">
<svg xmlns="http://www.w3.org/2000/svg" xmlns:xlink="http://www.w3.org/1999/xlink" version="1.1" width="1080" height="1080" viewBox="0 0 1080 1080" xml:space="preserve">
<desc>Created with Fabric.js 5.2.4</desc>
<defs>
</defs>
<g transform="matrix(1 0 0 1 540 540)" id="3e5004bb-756d-4cf6-84ac-abb506c5221a"  >
<rect style="stroke: none; stroke-width: 1; stroke-dasharray: none; stroke-linecap: butt; stroke-dashoffset: 0; stroke-linejoin: miter; stroke-miterlimit: 4; fill: rgb(255,255,255); fill-rule: nonzero; opacity: 1; visibility: hidden;" vector-effect="non-scaling-stroke"  x="-540" y="-540" rx="0" ry="0" width="1080" height="1080" />
</g>
<g transform="matrix(1 0 0 1 540 540)" id="4d93ab77-26a0-4df0-a8d8-60131de1d7b4"  >
</g>
<g transform="matrix(1 0 0 1 577.65 372.39)"  >
<path style="stroke: none; stroke-width: 1; stroke-dasharray: none; stroke-linecap: butt; stroke-dashoffset: 0; stroke-linejoin: miter; stroke-miterlimit: 4; fill: rgb(240,240,240); fill-rule: nonzero; opacity: 1;" vector-effect="non-scaling-stroke"  transform=" translate(-637.65, -282.39)" d="M 622.7107 251.78146 C 644.33416 235.80786 674.7775899999999 229.68431 698.59817 242.14597 C 671.7817035473394 253.78935322364754 649.947974271048 274.54282631858007 636.96 300.73449999999997 C 631.98769 310.85369000000003 627.51093 322.62640000000005 617.25176 327.3032 C 610.86831 330.21335 603.33429 329.65139 596.72424 327.30164 C 590.11393 324.95164 584.23397 320.95971000000003 578.43582 317.00995 L 576.69704 316.80063 C 587.01552 291.97609 601.08724 267.75506 622.7107 251.78146 Z" stroke-linecap="round" />
</g>
<g transform="matrix(1 0 0 1 578.05 368.99)"  >
<path style="stroke: none; stroke-width: 1; stroke-dasharray: none; stroke-linecap: butt; stroke-dashoffset: 0; stroke-linejoin: miter; stroke-miterlimit: 4; fill: rgb(255,255,255); fill-rule: nonzero; opacity: 1;" vector-effect="non-scaling-stroke"  transform=" translate(-638.05, -278.99)" d="M 698.40645 242.67649 C 676.1653546552602 243.3732966733922 654.7092458089745 251.06031202245134 637.0857 264.64569 C 633.2398402328299 267.50295757547264 629.8683945760868 270.94857340328696 627.09548 274.85569 C 624.5172949342412 278.7490105691306 623.0287192523793 283.26170426891406 622.78442 287.92489 C 622.46929 292.26829 622.64992 296.74760000000003 621.28442 300.93875 C 619.8063098950033 305.256964389631 616.5555040953132 308.73907537720464 612.3489099999999 310.51005000000004 C 607.2234599999999 312.82660000000004 601.5713099999999 313.16333000000003 596.03253 313.30055000000004 C 589.8827699999999 313.45290000000006 583.49268 313.51371000000006 577.89982 316.40942000000007 C 577.22217 316.7602800000001 576.7173799999999 315.6882800000001 577.39401 315.3379500000001 C 587.12463 310.2999500000001 598.4955199999999 313.5869500000001 608.72267 310.5885600000001 C 613.49485 309.1894400000001 617.87429 306.3436900000001 619.79041 301.58242000000007 C 621.46597 297.41890000000006 621.28365 292.7996300000001 621.56472 288.39909000000006 C 621.7363544983205 283.84652174808457 623.0201183666701 279.40522714908167 625.30387 275.46317000000005 C 627.8689013601318 271.4274754717723 631.1019944365227 267.85770662583155 634.8647 264.90673000000004 C 643.2298007232199 258.1280134613588 652.6087164585165 252.70671409312337 662.65787 248.84143 C 674.1024249686172 244.3664021519506 686.2281604538899 241.88209384100224 698.51045 241.49599000000003 C 699.27066 241.47241000000002 699.16165 242.65299000000005 698.40645 242.67647000000002 Z" stroke-linecap="round" />
</g>
<g transform="matrix(1 0 0 1 583.8 339.91)"  >
<path style="stroke: none; stroke-width: 1; stroke-dasharray: none; stroke-linecap: butt; stroke-dashoffset: 0; stroke-linejoin: miter; stroke-miterlimit: 4; fill: rgb(255,255,255); fill-rule: nonzero; opacity: 1;" vector-effect="non-scaling-stroke"  transform=" translate(-643.8, -249.91)" d="M 642.50292 259.93723 C 638.6243408159677 253.19119333312688 640.2040622685579 244.62858074925518 646.2345300000001 239.71067 C 646.82698 239.2309 647.60035 240.129 647.0071200000001 240.6094 C 641.3810242865541 245.1802730045151 639.9241072678047 253.16871719072864 643.5744000000001 259.4314 C 643.9575500000001 260.09055 642.8838900000001 260.59259 642.5029200000001 259.93721 Z" stroke-linecap="round" />
</g>
<g transform="matrix(1 0 0 1 573.77 375.7)"  >
<path style="stroke: none; stroke-width: 1; stroke-dasharray: none; stroke-linecap: butt; stroke-dashoffset: 0; stroke-linejoin: miter; stroke-miterlimit: 4; fill: rgb(255,255,255); fill-rule: nonzero; opacity: 1;" vector-effect="non-scaling-stroke"  transform=" translate(-633.77, -285.7)" d="M 622.65416 285.7016 C 630.0716804078955 287.77485495716604 637.9981201033345 286.97619013304615 644.85294 283.46486 C 645.53181 283.11642 646.0368 284.18831 645.35875 284.53634 C 638.2186418695123 288.17699397791665 629.9682743430537 288.991354866959 622.25418 286.8169 C 621.51906 286.60913999999997 621.92303 285.49496 622.65418 285.7016 Z" stroke-linecap="round" />
</g>
<g transform="matrix(1 0 0 1 616.77 339.28)"  >
<path style="stroke: none; stroke-width: 1; stroke-dasharray: none; stroke-linecap: butt; stroke-dashoffset: 0; stroke-linejoin: miter; stroke-miterlimit: 4; fill: rgb(255,255,255); fill-rule: nonzero; opacity: 1;" vector-effect="non-scaling-stroke"  transform=" translate(-676.77, -249.28)" d="M 674.04613 245.93647 C 674.9871781259812 248.8112307821632 677.3107027989261 251.02012047683147 680.2293599999999 251.81464000000003 C 680.9667499999999 252.01298000000003 680.56197 253.12700000000004 679.82936 252.92995000000002 C 676.610210301447 252.037509105418 674.0427151960358 249.60749577584045 672.9746399999999 246.44228 C 672.8461805443847 246.1459485691477 672.9699635073665 245.8007935434219 673.2574699999999 245.65364000000002 C 673.553431951035 245.5157397358043 673.9052415679913 245.64190923514965 674.0461099999999 245.93647 Z" stroke-linecap="round" />
</g>
<g transform="matrix(1 0 0 1 586.35 411.95)"  >
<path style="stroke: none; stroke-width: 1; stroke-dasharray: none; stroke-linecap: butt; stroke-dashoffset: 0; stroke-linejoin: miter; stroke-miterlimit: 4; fill: rgb(240,240,240); fill-rule: nonzero; opacity: 1;" vector-effect="non-scaling-stroke"  transform=" translate(-646.35, -321.95)" d="M 717.48461 331.18753 C 717.0206099999999 331.07678 716.55669 330.96603 716.08514 330.86181999999997 C 709.8397778241999 329.40511535357746 703.486393547774 328.4581974090672 697.08768 328.03040999999996 C 696.59349 327.98947999999996 696.09205 327.95541 695.59768 327.92878999999994 C 680.1707617150366 327.0624838598995 664.7170801961595 329.0678411614218 650.0222199999998 333.84291999999994 C 644.1765330842915 335.74840152314675 638.4842866626227 338.0958623838825 632.9947599999998 340.86498 C 625.4137599999999 344.6896699999999 617.4982499999999 349.43978999999996 609.3367 350.50532999999996 C 608.4864506348822 350.6260518234267 607.6295398966566 350.6939919091997 606.7708899999999 350.70876 L 576.57653 318.9381 C 576.5441500000001 318.83146 576.5042100000001 318.73132000000004 576.47153 318.62433000000004 L 575.2079600000001 317.41095000000007 C 575.4811000000001 317.24836000000005 575.7678900000001 317.08560000000006 576.0410300000001 316.9230100000001 C 576.1990900000001 316.82801000000006 576.3638700000001 316.7401400000001 576.5219200000001 316.6451600000001 C 576.6294200000001 316.5840900000001 576.7373000000001 316.5233300000001 576.8308100000002 316.4620700000001 C 576.8665200000002 316.4416100000001 576.9025600000001 316.4215000000001 576.9310500000001 316.4078900000001 C 577.0245700000002 316.34664000000015 577.1179400000001 316.29966000000013 577.2042000000001 316.2453000000001 Q 579.6050200000001 314.8739900000001 582.0335000000001 313.5316400000001 C 582.0407500000001 313.5247500000001 582.0407500000001 313.5247500000001 582.0547300000001 313.5249300000001 C 594.40794 306.7377600000001 607.4363000000001 300.9222500000001 620.93316 297.2690800000001 C 621.33927 297.15931000000006 621.7523 297.04228000000006 622.1721600000001 296.94702000000007 C 628.2650537477449 295.33410014524725 634.4795812331159 294.2218576109497 640.75368 293.62140000000005 C 644.1902369968419 293.3036594257804 647.6406759256076 293.16009236682174 651.09175 293.19125 C 660.0086499603611 293.2889046092475 668.8546973456116 294.7885135056528 677.3055899999999 297.6351 C 694.15151 303.31222 708.99427 314.31377000000003 716.8928900000001 329.98434000000003 C 717.09467 330.38536 717.29009 330.77962 717.48461 331.18753 Z" stroke-linecap="round" />
</g>
<g transform="matrix(1 0 0 1 586.99 412.63)"  >
<path style="stroke: none; stroke-width: 1; stroke-dasharray: none; stroke-linecap: butt; stroke-dashoffset: 0; stroke-linejoin: miter; stroke-miterlimit: 4; fill: rgb(255,255,255); fill-rule: nonzero; opacity: 1;" vector-effect="non-scaling-stroke"  transform=" translate(-646.99, -322.63)" d="M 717.0135 331.49934 C 698.8357060956298 318.6650242123296 677.0760902298339 311.88461617019146 654.82534 312.12119 C 650.0343583597275 312.0870793267102 645.267943265573 312.8083707601616 640.70157 314.25851 C 636.2989823298102 315.8148615661385 632.3934837882962 318.5217742865031 629.39087 322.09799 C 626.52423 325.37620999999996 623.9716 329.06144 620.35799 331.58574 C 616.5779371519712 334.14366615630513 611.8858806771633 334.9667294121517 607.4608999999999 333.8481 C 601.9737999999999 332.61185 597.2581299999999 329.47773 592.7531099999999 326.25256 C 587.7511099999999 322.67162 582.6124099999998 318.8729 576.4033999999999 317.81768 C 575.6510999999999 317.68983 575.8934699999999 316.52998 576.6446399999999 316.65767999999997 C 587.4472499999998 318.49357999999995 594.5472299999999 327.96419 604.5182899999999 331.72756999999996 C 609.1709699999999 333.48362999999995 614.3810499999998 333.84818999999993 618.7775699999999 331.20020999999997 C 622.6221399999998 328.88467999999995 625.2576899999999 325.08667999999994 628.1315699999999 321.74231999999995 C 631.009574245107 318.21068403216213 634.7085577472288 315.43747382183125 638.9053999999999 313.66493999999994 C 643.3831993198836 311.98698981275606 648.1138897718436 311.08327664012177 652.8948899999999 310.99249999999995 C 663.6552098656164 310.6164378991391 674.4077459941343 311.9345871831921 684.7585999999999 314.89865999999995 C 696.5907124285603 318.2160143261874 707.7681585092787 323.5329645675648 717.8073399999998 330.61947 C 718.4285199999998 331.05834 717.6306599999998 331.93537 717.0135399999998 331.49938 Z" stroke-linecap="round" />
</g>
<g transform="matrix(1 0 0 1 609.87 395.02)"  >
<path style="stroke: none; stroke-width: 1; stroke-dasharray: none; stroke-linecap: butt; stroke-dashoffset: 0; stroke-linejoin: miter; stroke-miterlimit: 4; fill: rgb(255,255,255); fill-rule: nonzero; opacity: 1;" vector-effect="non-scaling-stroke"  transform=" translate(-669.87, -305.02)" d="M 661.9855 311.62329 C 662.9502473179349 303.901781539064 669.3668542557033 298.01611322607505 677.14277 297.7202 C 677.90466 297.69381999999996 677.98144 298.87651999999997 677.2185400000001 298.90292999999997 C 669.9744192605264 299.1652050769403 664.0015408059108 304.6663818961932 663.1455400000001 311.86452999999995 C 663.0546100000001 312.62152999999995 661.8950900000001 312.37593999999996 661.9855400000001 311.62328999999994 Z" stroke-linecap="round" />
</g>
<g transform="matrix(1 0 0 1 579.83 416.5)"  >
<path style="stroke: none; stroke-width: 1; stroke-dasharray: none; stroke-linecap: butt; stroke-dashoffset: 0; stroke-linejoin: miter; stroke-miterlimit: 4; fill: rgb(255,255,255); fill-rule: nonzero; opacity: 1;" vector-effect="non-scaling-stroke"  transform=" translate(-639.83, -326.5)" d="M 630.62545 320.24436 C 635.2996819875602 326.3655976532911 642.1093484454518 330.5001763659468 649.6966 331.82365999999996 C 650.44843 331.95417 650.20628 333.11405999999994 649.45536 332.98366 C 641.5624558384309 331.5916843307902 634.4846940922846 327.27461735929114 629.63459 320.89402 C 629.17273 320.28554 630.16609 319.63915000000003 630.62545 320.24432 Z" stroke-linecap="round" />
</g>
<g transform="matrix(1 0 0 1 635.52 413.73)"  >
<path style="stroke: none; stroke-width: 1; stroke-dasharray: none; stroke-linecap: butt; stroke-dashoffset: 0; stroke-linejoin: miter; stroke-miterlimit: 4; fill: rgb(255,255,255); fill-rule: nonzero; opacity: 1;" vector-effect="non-scaling-stroke"  transform=" translate(-695.52, -323.73)" d="M 695.60041 319.43566 C 694.6209841161252 322.2975684217937 695.1462846609281 325.4601602868207 696.9983100000001 327.85177 C 697.46766 328.4541 696.4737500000001 329.09987 696.0074500000001 328.50146 C 693.9744676671957 325.85075934430307 693.3875047777343 322.3647448382047 694.44037 319.19446 C 694.5162150196852 318.8805140370069 694.8228539776535 318.6794507182124 695.14101 318.73505 C 695.4603487126226 318.8031345653274 695.6652868295033 319.11569419003894 695.60041 319.4357 Z" stroke-linecap="round" />
</g>
<g transform="matrix(1 0 0 1 450.83 477.28)"  >
<path style="stroke: none; stroke-width: 1; stroke-dasharray: none; stroke-linecap: butt; stroke-dashoffset: 0; stroke-linejoin: miter; stroke-miterlimit: 4; fill: rgb(63,61,86); fill-rule: nonzero; opacity: 1;" vector-effect="non-scaling-stroke"  transform=" translate(-510.83, -387.28)" d="M 617.00532 275.54539 L 614.66543 275.54539 L 614.66543 211.44461 C 614.6654406086648 201.60513576152618 610.7567334919171 192.16865684916849 603.799180160672 185.2110922657397 C 596.8416268294268 178.2535276823109 587.4051542384782 174.34480530432597 577.56568 174.34480000000002 L 441.75945 174.34480000000002 C 431.9199765745737 174.34477878265798 422.48349393532226 178.25347403338972 415.5259205499882 185.21101741290323 C 408.56834716465414 192.16856079241674 404.65961121729634 201.6050265745737 404.65959000000004 211.44450000000003 L 404.65959000000004 563.10644 C 404.6595789542927 583.5960820460571 421.2696979539587 600.2062323857814 441.75934000000007 600.20626 L 577.5655 600.20626 C 598.0551443337241 600.2063152285546 614.6653292487636 583.5962243337084 614.66539 563.10658 L 614.66539 321.17342 L 617.00532 321.17342 Z" stroke-linecap="round" />
</g>
<g transform="matrix(1 0 0 1 450.83 477.28)"  >
<path style="stroke: none; stroke-width: 1; stroke-dasharray: none; stroke-linecap: butt; stroke-dashoffset: 0; stroke-linejoin: miter; stroke-miterlimit: 4; fill: rgb(255,255,255); fill-rule: nonzero; opacity: 1;" vector-effect="non-scaling-stroke"  transform=" translate(-510.83, -387.28)" d="M 579.06253 183.99688 L 561.33533 183.99688 C 562.9908049964342 188.05562563007152 562.5172531698147 192.67215450727457 560.0722522684139 196.31028371685363 C 557.627251367013 199.9484129264327 553.5316392258753 202.130739986227 549.14826 202.13108 L 471.34663 202.13108 C 466.9632375819614 202.13076414350448 462.86760516322255 199.94843842823383 460.42260014401114 196.3102960937017 C 457.9775951247998 192.6721537591696 457.5040604245243 188.05560577126872 459.15957000000003 183.99686 L 442.60232 183.99686 C 427.30088898187 183.9968544771332 414.8966176142083 196.4010989818939 414.89659 211.70253 L 414.89659 562.84847 C 414.8965846956683 570.196481154713 417.81556567427 577.243539009995 423.01139043927435 582.4393712764545 C 428.20721520427867 587.6352035429139 435.2542688452871 590.5541946956722 442.60228 590.5542 L 579.06253 590.5542 C 586.4105402351573 590.5542053043316 593.457597062365 587.635224006587 598.6534277409194 582.4393989541243 C 603.8492584194737 577.2435739016616 606.7682473478364 570.1965202351588 606.7682500000001 562.84851 L 606.7682500000001 562.84851 L 606.7682500000001 211.70251000000002 C 606.7682168629494 196.40109164519208 594.3639483548349 183.99686343143426 579.06253 183.99688 Z" stroke-linecap="round" />
</g>
<g transform="matrix(1 0 0 1 453.46 491.25)"  >
<path style="stroke: none; stroke-width: 1; stroke-dasharray: none; stroke-linecap: butt; stroke-dashoffset: 0; stroke-linejoin: miter; stroke-miterlimit: 4; fill: rgb(240,240,240); fill-rule: nonzero; opacity: 1;" vector-effect="non-scaling-stroke"  transform=" translate(-513.46, -401.25)" d="M 513.45449 477.75275 C 493.159634107241 477.7716705472057 473.6905646315232 469.7179482912918 459.3399281701157 455.3673118298843 C 444.98929170870815 441.01667536847674 436.93556945279425 421.54760589275895 436.95448999999996 401.25275 C 436.92537850390534 372.4796961446973 453.066455707793 346.13109793355824 478.7127899999999 333.08675000000005 C 497.1308814961538 323.71632127644995 518.5520574590862 322.17890607208295 538.1195299999999 328.82308 C 573.5442957028624 340.8950007557155 595.0368252622372 376.8217545200573 588.9219423523385 413.74401749015715 C 582.8070594424398 450.666280460257 550.8797253721021 477.74590014121446 513.45453 477.75277 Z M 513.45449 327.75275 C 501.84901994954305 327.7185784947133 490.40406119022305 330.4637276507181 480.07679999999993 335.75861 C 455.4677290609604 348.29636566777606 439.96424214475564 373.5713174427551 439.94151557498833 401.1901728348701 C 439.9187890052211 428.8090282269851 455.3806592442337 454.10946028852084 479.96906312861375 466.6876988013705 C 504.5574670129938 479.2659373142202 534.1216467939543 476.9986553142263 556.5045399999999 460.81818 C 560.4740713229919 457.9539663140817 564.1448031568507 454.6969453700074 567.4610799999999 451.0965 C 587.2808883162068 429.65201241218955 592.5205617661578 398.5060681470491 580.8083489352097 371.7569575039359 C 569.0961361042616 345.00784686082267 542.6553542388729 327.7333258435474 513.45449 327.75275 Z" stroke-linecap="round" />
</g>
<g transform="matrix(1 0 0 1 298.18 452.51)"  >
<path style="stroke: none; stroke-width: 1; stroke-dasharray: none; stroke-linecap: butt; stroke-dashoffset: 0; stroke-linejoin: miter; stroke-miterlimit: 4; fill: rgb(255,182,182); fill-rule: nonzero; opacity: 1;" vector-effect="non-scaling-stroke"  transform=" translate(-358.18, -362.51)" d="M 347.69027 333.36145 C 351.9410296373519 333.8944371922546 355.73738588849426 336.28286736321627 358.0578195500476 339.88406445084945 C 360.378253211601 343.4852615384826 360.98440416348905 347.929302547595 359.71317 352.02039 L 385.13033 373.19210000000004 L 376.03158 391.776 L 340.55758000000003 361.37331 C 333.67527311948703 358.72399063177306 329.86219879313313 351.34580794457827 331.6819475012514 344.1992314388855 C 333.50169620936964 337.0526549331926 340.37907380015554 332.3966058507971 347.69031 333.36142 Z" stroke-linecap="round" />
</g>
<g transform="matrix(1 0 0 1 406.08 506.17)"  >
<path style="stroke: none; stroke-width: 1; stroke-dasharray: none; stroke-linecap: butt; stroke-dashoffset: 0; stroke-linejoin: miter; stroke-miterlimit: 4; fill: rgb(228,228,228); fill-rule: nonzero; opacity: 1;" vector-effect="non-scaling-stroke"  transform=" translate(-466.08, -416.17)" d="M 585.0746 421.65265 C 584.56484 416.17304 582.4574200000001 406.32239 580.6693300000001 402.68005 C 575.17226 388.29218 539.6541900000001 376.4671 534.88466 374.94268999999997 L 533.67466 361.49269 L 484.32456 356.18269 L 478.06431000000003 373.38268999999997 L 460.36460000000005 380.02268999999995 C 457.9314223307436 380.93010010610686 456.03134367959757 382.877800208147 455.1844300000001 385.33268999999996 L 455.1844300000001 385.33268999999996 L 439.30455000000006 389.92268999999993 L 423.63462000000004 394.4526899999999 L 369.19468000000006 356.0926899999999 L 366.62437000000006 357.7726899999999 L 349.44468000000006 368.9826899999999 L 346.79429000000005 370.7126899999999 L 417.24449000000004 434.2726899999999 L 443.41441000000003 428.1326899999999 L 463.09458 423.5026899999999 L 464.77427 430.3226899999999 L 460.42466 454.2826899999999 C 486.45683192041173 480.32447220392055 527.5463997638467 483.6087559372809 557.38466 462.0326899999999 L 568.5643500000001 452.1126899999999 C 576.3562886429122 443.68737107611804 582.1076718208687 433.5839957612735 585.3744100000001 422.5826899999998 Z" stroke-linecap="round" />
</g>
<g transform="matrix(0.95 -0.31 0.31 0.95 453.34 401.45)"  >
<circle style="stroke: none; stroke-width: 1; stroke-dasharray: none; stroke-linecap: butt; stroke-dashoffset: 0; stroke-linejoin: miter; stroke-miterlimit: 4; fill: rgb(255,182,182); fill-rule: nonzero; opacity: 1;" vector-effect="non-scaling-stroke"  cx="0" cy="0" r="35.53244" />
</g>
<g transform="matrix(1 0 0 1 459.37 385.58)"  >
<path style="stroke: none; stroke-width: 1; stroke-dasharray: none; stroke-linecap: butt; stroke-dashoffset: 0; stroke-linejoin: miter; stroke-miterlimit: 4; fill: rgb(47,46,65); fill-rule: nonzero; opacity: 1;" vector-effect="non-scaling-stroke"  transform=" translate(-519.37, -295.58)" d="M 485.27061 270.9435 C 488.7249921130825 266.01034649078326 493.90890262061447 262.5573643208402 499.79220999999995 261.27072 C 505.60923422860213 260.07427847559035 511.6635588209781 261.18478437112645 516.67728 264.36784 C 522.12928 262.17163 528.00757 260.71454 533.78291 261.45528 C 539.55825 262.19602000000003 545.21863 265.42195000000004 547.89098 270.73657000000003 C 548.4530877428037 272.11331203439784 549.1351364295821 273.43797428025465 549.92925 274.69526 C 552.2837900000001 277.83639 556.65896 278.24384000000003 560.52306 278.39472 Q 557.59285 280.10388 554.6614099999999 281.81281 Q 557.58228 283.17381 560.5037699999999 284.53509 Q 556.5279699999999 286.05267000000003 552.5527699999999 287.57037 C 558.7212399999999 292.99268 560.2133999999999 302.64264000000003 557.8773499999999 310.73313 C 555.6662299999998 318.39300000000003 550.5963499999999 324.84113 544.9350099999999 330.36157000000003 C 543.8304299999999 326.24239 545.0455299999999 321.77657000000005 545.85457 317.51195 C 546.70899 313.00588 546.8458899999999 307.73695000000004 543.69087 304.5556 C 541.56253 302.4096 538.44044 301.76126000000005 535.49668 301.24060000000003 C 520.6477022887838 298.6144704365485 505.6613782094034 296.8350235538454 490.61030999999986 295.91087999999996 C 488.59586789461645 295.63256193542657 486.5440451641434 295.8420763402785 484.62742999999995 296.52180000000004 C 480.96464999999995 298.1494 479.49301999999994 302.61933000000005 478.43161999999995 306.58273 C 477.9231768377613 299.6258669351246 478.3293573268337 292.63236447294366 479.63976999999994 285.78114000000005 C 480.64386 280.53748 482.22559 275.28913 485.27061 270.9435 Z" stroke-linecap="round" />
</g>
<g transform="matrix(1 0 0 1 450.45 598.3)"  >
<path style="stroke: none; stroke-width: 1; stroke-dasharray: none; stroke-linecap: butt; stroke-dashoffset: 0; stroke-linejoin: miter; stroke-miterlimit: 4; fill: rgb(240,90,126); fill-rule: nonzero; opacity: 1;" vector-effect="non-scaling-stroke"  transform=" translate(-510.45, -508.3)" d="M 531.45449 513.79523 L 489.45448999999996 513.79523 C 486.4169238759306 513.79523 483.95448999999996 511.3327961240693 483.95448999999996 508.29522999999995 C 483.95448999999996 505.2576638759306 486.4169238759306 502.79522999999995 489.45448999999996 502.79522999999995 L 531.45449 502.79522999999995 C 534.4920561240693 502.79522999999995 536.95449 505.2576638759306 536.95449 508.29522999999995 C 536.95449 511.3327961240693 534.4920561240693 513.79523 531.45449 513.79523 Z" stroke-linecap="round" />
</g>
<g transform="matrix(1 0 0 1 275.88 305.45)"  >
<path style="stroke: none; stroke-width: 1; stroke-dasharray: none; stroke-linecap: butt; stroke-dashoffset: 0; stroke-linejoin: miter; stroke-miterlimit: 4; fill: rgb(240,90,126); fill-rule: nonzero; opacity: 1;" vector-effect="non-scaling-stroke"  transform=" translate(-335.88, -215.45)" d="M 393.63613 219.47 L 278.11147 219.47 C 275.8948290347132 219.4665030694153 274.0997388228449 217.66857872363062 274.0997388228449 215.451935 C 274.0997388228449 213.2352912763694 275.8948290347132 211.43736693058472 278.11147 211.43387 L 393.63613 211.43387 C 395.85524602332885 211.43387 397.65419499999996 213.23281897667115 397.65419499999996 215.45193500000002 C 397.654195 217.67105102332889 395.85524602332885 219.47000000000003 393.63613 219.47000000000003 Z" stroke-linecap="round" />
</g>
<g transform="matrix(1 0 0 1 309.22 331.12)"  >
<path style="stroke: none; stroke-width: 1; stroke-dasharray: none; stroke-linecap: butt; stroke-dashoffset: 0; stroke-linejoin: miter; stroke-miterlimit: 4; fill: rgb(240,90,126); fill-rule: nonzero; opacity: 1;" vector-effect="non-scaling-stroke"  transform=" translate(-369.22, -241.12)" d="M 460.33632 245.13312 L 278.11147 245.13312 C 275.89248652501107 245.13312 274.093645 243.3342784749889 274.093645 241.115295 C 274.093645 238.89631152501107 275.89248652501107 237.09747 278.11147 237.09747 L 460.33632 237.09747 C 462.55530347498893 237.09747 464.354145 238.89631152501107 464.354145 241.11529499999997 C 464.354145 243.3342784749889 462.55530347498893 245.13312 460.33632 245.13312 Z" stroke-linecap="round" />
</g>
<g transform="matrix(1 0 0 1 291.72 355.29)"  >
<path style="stroke: none; stroke-width: 1; stroke-dasharray: none; stroke-linecap: butt; stroke-dashoffset: 0; stroke-linejoin: miter; stroke-miterlimit: 4; fill: rgb(202,202,202); fill-rule: nonzero; opacity: 1;" vector-effect="non-scaling-stroke"  transform=" translate(-351.71, -265.29)" d="M 425.3185 269.31036 L 278.1115 269.31036 C 275.89251928643483 269.31036 274.09367999999995 267.5115207135652 274.09367999999995 265.29254000000003 C 274.09367999999995 263.07355928643483 275.89251928643483 261.27472 278.1115 261.27472 L 425.3185 261.27472 C 427.5374807135651 261.27472 429.33631999999994 263.07355928643483 429.33632 265.29254 C 429.33632 267.5115207135652 427.5374807135651 269.31036 425.3185 269.31036 Z" stroke-linecap="round" />
</g>
<g transform="matrix(1 0 0 1 259.62 379.38)"  >
<path style="stroke: none; stroke-width: 1; stroke-dasharray: none; stroke-linecap: butt; stroke-dashoffset: 0; stroke-linejoin: miter; stroke-miterlimit: 4; fill: rgb(202,202,202); fill-rule: nonzero; opacity: 1;" vector-effect="non-scaling-stroke"  transform=" translate(-319.62, -289.38)" d="M 361.1205 293.39874 L 278.1115 293.39874 C 275.89251928643483 293.39874 274.09367999999995 291.59990071356515 274.09367999999995 289.38091999999995 C 274.09367999999995 287.1619392864348 275.89251928643483 285.3631 278.1115 285.3631 L 361.1205 285.3631 C 363.33948071356514 285.3631 365.13831999999996 287.1619392864348 365.13832 289.38091999999995 C 365.13832 291.59990071356515 363.33948071356514 293.39874 361.1205 293.39874 Z" stroke-linecap="round" />
</g>
<g transform="matrix(1 0 0 1 282.54 403.47)"  >
<path style="stroke: none; stroke-width: 1; stroke-dasharray: none; stroke-linecap: butt; stroke-dashoffset: 0; stroke-linejoin: miter; stroke-miterlimit: 4; fill: rgb(202,202,202); fill-rule: nonzero; opacity: 1;" vector-effect="non-scaling-stroke"  transform=" translate(-342.54, -313.47)" d="M 406.97646 317.48517 L 278.11145999999997 317.48517 C 275.89495150912325 317.48167317396786 274.09996863353575 315.68385624922047 274.09996863353575 313.467345 C 274.09996863353575 311.2508337507795 275.89495150912325 309.4530168260321 278.11145999999997 309.44952 L 406.97646 309.44952 C 409.1929684908767 309.4530168260321 410.9879513664642 311.2508337507795 410.9879513664642 313.46734499999997 C 410.9879513664642 315.68385624922047 409.1929684908767 317.48167317396786 406.97646 317.48517 Z" stroke-linecap="round" />
</g>
<g transform="matrix(1 0 0 1 702.51 780.6)"  >
<polygon style="stroke: none; stroke-width: 1; stroke-dasharray: none; stroke-linecap: butt; stroke-dashoffset: 0; stroke-linejoin: miter; stroke-miterlimit: 4; fill: rgb(159,97,106); fill-rule: nonzero; opacity: 1;" vector-effect="non-scaling-stroke"  points="7.64,19.97 -2.71,19.97 -7.64,-19.97 7.64,-19.97 7.64,19.97 " />
</g>
<g transform="matrix(1 0 0 1 694.46 804.22)"  >
<path style="stroke: none; stroke-width: 1; stroke-dasharray: none; stroke-linecap: butt; stroke-dashoffset: 0; stroke-linejoin: miter; stroke-miterlimit: 4; fill: rgb(47,46,65); fill-rule: nonzero; opacity: 1;" vector-effect="non-scaling-stroke"  transform=" translate(-754.46, -714.22)" d="M 774.22738 724.90117 L 734.6966100000001 724.89971 L 734.6966100000001 724.39971 C 734.6972008812946 715.9022769479376 741.5856569394585 709.0139328136194 750.0830900000001 709.0134800000001 L 750.0840900000001 709.0134800000001 L 757.3049000000001 703.5353900000001 L 770.7773300000001 709.0143100000001 L 774.2281300000001 709.0144500000001 Z" stroke-linecap="round" />
</g>
<g transform="matrix(1 0 0 1 709.34 580.72)"  >
<path style="stroke: none; stroke-width: 1; stroke-dasharray: none; stroke-linecap: butt; stroke-dashoffset: 0; stroke-linejoin: miter; stroke-miterlimit: 4; fill: rgb(159,97,106); fill-rule: nonzero; opacity: 1;" vector-effect="non-scaling-stroke"  transform=" translate(-769.34, -490.72)" d="M 764.12069 522.87135 L 759.554 467.19223 L 755.96656 446.29359999999997 L 776.0523099999999 441.8576 L 782.7176099999999 470.46904 L 776.9105299999999 524.41643 C 779.3067518460905 527.3529158134779 779.6788908829603 531.4506084960539 777.8508732629767 534.7707259110663 C 776.022855642993 538.0908433260787 772.36125232996 539.9676048883409 768.5985141553018 539.5130397143458 C 764.8357759806436 539.0584745403509 761.7264419291866 536.363736233938 760.7416621780809 532.7038131595755 C 759.7568824269753 529.0438900852129 761.0941341003752 525.1527037949425 764.1207099999999 522.87133 Z" stroke-linecap="round" />
</g>
<g transform="matrix(1 0 0 1 647.51 780.6)"  >
<polygon style="stroke: none; stroke-width: 1; stroke-dasharray: none; stroke-linecap: butt; stroke-dashoffset: 0; stroke-linejoin: miter; stroke-miterlimit: 4; fill: rgb(159,97,106); fill-rule: nonzero; opacity: 1;" vector-effect="non-scaling-stroke"  points="7.64,19.97 -2.71,19.97 -7.64,-19.97 7.64,-19.97 7.64,19.97 " />
</g>
<g transform="matrix(1 0 0 1 670.9 707.5)"  >
<path style="stroke: none; stroke-width: 1; stroke-dasharray: none; stroke-linecap: butt; stroke-dashoffset: 0; stroke-linejoin: miter; stroke-miterlimit: 4; fill: rgb(47,46,65); fill-rule: nonzero; opacity: 1;" vector-effect="non-scaling-stroke"  transform=" translate(-730.9, -617.5)" d="M 698.58316 535.4935 L 693.9930400000001 543.4336000000001 C 693.9930400000001 543.4336000000001 688.94942 544.8112100000001 690.5977700000001 561.25223 C 692.2461200000001 577.69325 692.31717 675.10189 700.2959400000001 687.0882300000001 L 701.7394700000001 697.3811300000001 L 716.8063400000001 698.8209400000001 L 717.1862500000001 689.6880600000001 L 735.1516100000001 562.8037700000001 C 735.1516100000001 562.8037700000001 745.7324800000001 687.3637700000002 754.4854200000001 690.4116600000001 L 757.6465800000001 700.7892 L 771.4544900000001 700.7952 L 770.63931 688.56589 L 771.5295600000001 534.2065699999999 Z" stroke-linecap="round" />
</g>
<g transform="matrix(1 0 0 1 674.53 558.42)"  >
<path style="stroke: none; stroke-width: 1; stroke-dasharray: none; stroke-linecap: butt; stroke-dashoffset: 0; stroke-linejoin: miter; stroke-miterlimit: 4; fill: rgb(228,228,228); fill-rule: nonzero; opacity: 1;" vector-effect="non-scaling-stroke"  transform=" translate(-734.53, -468.42)" d="M 693.5366 542.82854 L 693.21914 542.74689 C 702.69326 507.31049 699.9603500000001 461.42365 693.27089 412.15009 L 693.27102 411.94595999999996 L 717.4544900000001 389.79522999999995 L 738.4544900000001 389.79522999999995 L 759.27254 403.23006999999996 C 772.73113 409.95906999999994 775.7896300000001 424.20922999999993 775.81901 424.3527399999999 L 775.83973 424.4541899999999 L 767.59346 453.23824999999994 L 773.8057200000001 536.4814299999999 L 773.8128300000001 536.5779299999999 L 773.77736 536.6678299999999 C 771.7668500000001 541.7653999999999 766.37928 541.0395899999999 760.1410400000001 540.1987199999999 C 753.91362 539.3590899999998 730.96504 547.0369899999998 723.9283700000001 547.0369899999998 C 710.17719 547.037 694.51912 543.08051 693.5366 542.82854 Z" stroke-linecap="round" />
</g>
<g transform="matrix(1 0 0 1 708.95 531.16)"  >
<path style="stroke: none; stroke-width: 1; stroke-dasharray: none; stroke-linecap: butt; stroke-dashoffset: 0; stroke-linejoin: miter; stroke-miterlimit: 4; fill: rgb(228,228,228); fill-rule: nonzero; opacity: 1;" vector-effect="non-scaling-stroke"  transform=" translate(-768.95, -441.16)" d="M 754.913 414.44928 L 763.9344 410.52468 L 775.82032 425.09754 L 785.4545 471.79523 L 752.4545 466.79523 Z" stroke-linecap="round" />
</g>
<g transform="matrix(1 0 0 1 585.97 573.03)"  >
<path style="stroke: none; stroke-width: 1; stroke-dasharray: none; stroke-linecap: butt; stroke-dashoffset: 0; stroke-linejoin: miter; stroke-miterlimit: 4; fill: rgb(159,97,106); fill-rule: nonzero; opacity: 1;" vector-effect="non-scaling-stroke"  transform=" translate(-645.97, -483.03)" d="M 616.1535 500.56024 L 657.3945 462.87469000000004 L 671.7275 447.24816000000004 L 687.52762 460.419 L 668.97826 483.1997 L 622.75846 511.621 C 621.9024584794115 515.3131634794462 618.8894069612285 518.1151393263015 615.1448989787945 518.701202233927 C 611.4003909963604 519.2872651415524 607.6753088452098 517.5398925239449 605.7321358396193 514.2858352975657 C 603.7889628340289 511.03177807118647 604.0173614380401 506.92356895098925 606.3092672621334 503.90496373405654 C 608.6011730862267 500.8863585171239 612.4969926365662 499.562674971567 616.15346 500.5602 Z" stroke-linecap="round" />
</g>
<g transform="matrix(1 0 0 1 618.98 539.05)"  >
<path style="stroke: none; stroke-width: 1; stroke-dasharray: none; stroke-linecap: butt; stroke-dashoffset: 0; stroke-linejoin: miter; stroke-miterlimit: 4; fill: rgb(228,228,228); fill-rule: nonzero; opacity: 1;" vector-effect="non-scaling-stroke"  transform=" translate(-678.98, -449.05)" d="M 656.49652 463.28489 L 667.9189 448.45158000000004 C 668.01348 448.23886000000005 677.49033 427.06158000000005 685.70462 417.86025000000006 C 694.13094 408.42131000000006 700.7647099999999 413.2483500000001 700.83098 413.3003800000001 L 700.99609 413.4247700000001 L 701.45449 448.2813000000001 L 669.8267099999999 486.0731800000001 Z" stroke-linecap="round" />
</g>
<g transform="matrix(0.16 -0.99 0.99 0.16 665.87 455.85)"  >
<circle style="stroke: none; stroke-width: 1; stroke-dasharray: none; stroke-linecap: butt; stroke-dashoffset: 0; stroke-linejoin: miter; stroke-miterlimit: 4; fill: rgb(159,97,106); fill-rule: nonzero; opacity: 1;" vector-effect="non-scaling-stroke"  cx="0" cy="0" r="19.25073" />
</g>
<g transform="matrix(1 0 0 1 670.58 450.5)"  >
<path style="stroke: none; stroke-width: 1; stroke-dasharray: none; stroke-linecap: butt; stroke-dashoffset: 0; stroke-linejoin: miter; stroke-miterlimit: 4; fill: rgb(47,46,65); fill-rule: nonzero; opacity: 1;" vector-effect="non-scaling-stroke"  transform=" translate(-730.58, -360.5)" d="M 708.27224 362.98972 C 708.27224 362.98972 708.11812 356.22209 707.26246 353.22753 C 706.4068000000001 350.23297 704.6957 347.66621 705.55128 347.66621 C 706.40686 347.66621 706.83466 345.52720999999997 706.83466 345.52720999999997 C 706.83466 345.52720999999997 707.6902299999999 345.09943 708.11804 345.52720999999997 C 708.54585 345.95498999999995 708.9736099999999 342.53265999999996 708.9736099999999 342.53265999999996 C 708.9736099999999 342.53265999999996 709.4014199999999 341.24927999999994 709.8291799999998 342.10488 C 710.2569399999998 342.96048 710.2569899999999 342.53265999999996 710.6847599999999 341.24928 C 711.1125299999999 339.96590000000003 713.2516499999998 339.11028 713.2516499999998 339.11028 C 713.2516499999998 339.11028 721.3797399999999 339.53806 722.6631199999998 337.82689999999997 C 723.9464999999998 336.11573999999996 738.4914999999999 337.3991 741.4860699999998 339.53806 C 744.4806399999998 341.67701999999997 757.7422599999998 349.37733 755.6032599999999 355.79425 C 753.46426 362.21117 747.3069799999998 376.98602 745.7639799999998 378.46734999999995 C 743.3240499999998 380.80976999999996 741.6348999999998 381.65434999999997 730.0897599999998 383.9515999999999 C 727.8303199999998 384.40118999999993 716.2975999999999 377.02568999999994 716.2975999999999 375.7423099999999 C 716.2975999999999 374.4589299999999 717.6879599999999 370.3889999999999 715.4530199999999 369.83030999999994 C 712.0747099999999 368.98572999999993 711.6946599999999 373.25678999999997 710.8390199999999 371.97340999999994 C 709.9833799999999 370.6900299999999 708.27224 362.98972 708.27224 362.98972 Z" stroke-linecap="round" />
</g>
<g transform="matrix(1 0 0 1 639.46 804.22)"  >
<path style="stroke: none; stroke-width: 1; stroke-dasharray: none; stroke-linecap: butt; stroke-dashoffset: 0; stroke-linejoin: miter; stroke-miterlimit: 4; fill: rgb(47,46,65); fill-rule: nonzero; opacity: 1;" vector-effect="non-scaling-stroke"  transform=" translate(-699.46, -714.22)" d="M 719.22738 724.90117 L 679.6966100000001 724.89971 L 679.6966100000001 724.39971 C 679.6972008812946 715.9022769479376 686.5856569394585 709.0139328136194 695.0830900000001 709.0134800000001 L 695.0840900000001 709.0134800000001 L 702.3049000000001 703.5353900000001 L 715.7773300000001 709.0143100000001 L 719.2281300000001 709.0144500000001 Z" stroke-linecap="round" />
</g>
<g transform="matrix(1 0 0 1 541.07 814.46)"  >
<path style="stroke: none; stroke-width: 1; stroke-dasharray: none; stroke-linecap: butt; stroke-dashoffset: 0; stroke-linejoin: miter; stroke-miterlimit: 4; fill: rgb(202,202,202); fill-rule: nonzero; opacity: 1;" vector-effect="non-scaling-stroke"  transform=" translate(-601.07, -724.46)" d="M 924.71567 725.6552 L 277.42167000000006 725.6552 C 276.99628096441927 725.6552000644834 276.6032052582176 725.4282577526606 276.39051072181246 725.0598600521034 C 276.17781618540727 724.6914623515464 276.17781618540727 724.2375776484537 276.39051072181246 723.8691799478967 C 276.6032052582176 723.5007822473395 276.99628096441927 723.2738399355167 277.42167000000006 723.2738400000001 L 924.71567 723.2738400000001 C 925.3732643354423 723.2738400996827 925.9063498195086 723.8069256645579 925.9063498195086 724.46452 C 925.9063498195086 725.1221143354422 925.3732643354423 725.6551999003174 924.71567 725.6552 Z" stroke-linecap="round" />
</g>
<g transform="matrix(NaN NaN NaN NaN 0 0)"  >
<g style=""   >
</g>
</g>
<g transform="matrix(NaN NaN NaN NaN 0 0)"  >
<g style=""   >
</g>
</g>
<g transform="matrix(NaN NaN NaN NaN 0 0)"  >
<g style=""   >
</g>
</g>
<g transform="matrix(NaN NaN NaN NaN 0 0)"  >
<g style=""   >
</g>
</g>
<g transform="matrix(NaN NaN NaN NaN 0 0)"  >
<g style=""   >
</g>
</g>
<g transform="matrix(NaN NaN NaN NaN 0 0)"  >
<g style=""   >
</g>
</g>
</svg>